<svg id="master-artboard" xmlns="http://www.w3.org/2000/svg" width="1184" height="665" viewBox="0 0 1184 665"><path id="ee-background" fill="#fff" fill-opacity="0" pointer-events="none" d="M0 0h1184v665H0z"/><defs><style id="ee-google-fonts">@import url(https://fonts.googleapis.com/css?family=Fjalla+One:400|Roboto:100,100italic,300,300italic,400,400italic,500,500italic,700,700italic,900,900italic);</style></defs><switch transform="translate(-108.348 -108.36) scale(4.17412)"><g><path d="M0 0h335.4v211.3H0V0z" class="st0" fill="none"/><path d="M51.9 35.7h-9.7V26h-6.5v9.7H26v6.5h9.7v9.7h6.5v-9.7h9.7z" class="st1" fill="#00d1da"/><path class="st2" d="M204.2 81.5zm15.6-20.6c0-4.9-4-9-9-9H201v29.6h3.3V69.9H211.7l5.3 11.7h3.6L214.7 69c3-1.5 5.1-4.6 5.1-8.1zm-9 5.7h-6.6V55.2h6.6c3.1 0 5.7 2.5 5.7 5.7s-2.6 5.7-5.7 5.7zM103 72.5c0 4.4-3 6.2-6.6 6.2-3.6 0-6.6-1.8-6.6-6.2V51.9h-3.3v20.6c0 5.8 4 9.4 9.9 9.4 5.8 0 9.9-3.6 9.9-9.4V51.9H103v20.6zm-30.9 2.2l-4.4-22.8h-4l-4.4 22.8-4.1-22.8h-3.3l5.7 29.6h3.5l4.7-22.9 4.7 22.9H74l5.7-29.6h-3.3l-4.3 22.8zm112.4 19.8h-9.8v29.6h3.3v-11.6h6.6c4.9 0 9-4 9-9-.1-5-4.1-9-9.1-9zm0 14.7H178V97.8h6.6c3.1 0 5.7 2.5 5.7 5.7s-2.7 5.7-5.8 5.7zm-6.5 14.9zm89.9-72.2l-9.5 29.6h3.5l2.2-6.8h11.2l2.2 6.8h3.5l-9.5-29.6h-3.6zm-2.8 19.5l4.6-14.2 4.6 14.2h-9.2zm-25.6 22.7c-5.3 0-9.6 4.3-9.6 9.6v11.2c0 5.3 4.3 9.6 9.6 9.6s9.6-4.3 9.6-9.6v-11.2c0-5.3-4.3-9.6-9.6-9.6zm6.3 20.8c0 3.5-2.8 6.3-6.3 6.3s-6.3-2.8-6.3-6.3v-11.2c0-3.5 2.8-6.3 6.3-6.3s6.3 2.8 6.3 6.3v11.2zM125.6 94.1c-5.3 0-9.6 4.3-9.6 9.6v11.2c0 5.3 4.3 9.6 9.6 9.6s9.6-4.3 9.6-9.6v-11.2c0-5.3-4.3-9.6-9.6-9.6zm6.3 20.8c0 3.5-2.8 6.3-6.3 6.3s-6.3-2.8-6.3-6.3v-11.2c0-3.5 2.8-6.3 6.3-6.3s6.3 2.8 6.3 6.3v11.2zm.3-40.2l-13.4-22.8h-3.1v29.6h3.3V58.7l13.4 22.8h3.1V51.9h-3.3v22.8zm174-22.8v22.8l-13.4-22.8h-3.1v29.6h3.3V58.7l13.4 22.8h3.1V51.9h-3.3zm-30 65.4l-13.4-22.8h-3.1v29.6h3.3v-22.8l13.4 22.8h3.1V94.5h-3.3v22.8zM164.3 71.9V61.5c0-5.3-4.3-9.6-9.6-9.6h-9.8v29.6h9.8c5.3 0 9.6-4.3 9.6-9.6zm-16.1-16.7h6.6c3.5 0 6.3 2.8 6.3 6.3v10.4c0 3.5-2.8 6.3-6.3 6.3h-6.6v-23zm44.1 23h-14.8v-9.9h13.2V65h-13.2v-9.8h14.8v-3.3h-18.1v29.6h18.1v-3.3zm47.2-11.7l-7.4-14.6h-3.4v29.6h3.3V58.7l6.5 13h2.1l6.5-13v22.8h3.3V51.9H247l-7.5 14.6zM53.6 97.8h10.6v26.3h3.3V97.8H78v-3.3H53.6v3.3zm49.3 9.9H90V94.5h-3.3v29.6H90V111h12.9v13.1h3.3V94.5h-3.3v13.2zm110 0l-4.7-1.9c-3.2-1.3-3.6-2.8-3.6-4.1 0-1.2.5-2.2 1.3-2.9 1.1-.9 2.7-1.4 4.6-1.4 1.9 0 3.5.5 4.6 1.4 1 .9 1.5 2.1 1.5 3.6v.5h3.3v-.5c0-5.1-3.8-8.3-9.3-8.3-5.5 0-9.2 3.1-9.2 7.6 0 4 2.8 6.1 6.2 7.4l4.2 1.7c4.1 1.6 5.2 2.7 5.2 5.2 0 1.6-.5 2.8-1.6 3.8-1.2 1-2.9 1.5-5 1.5s-3.9-.5-5.1-1.5c-1-.9-1.6-2-1.6-3.5v-.7h-3.3v.7c0 5.1 4.1 8.3 9.9 8.3 5.8 0 9.9-3.4 9.9-8.6 0-5.2-3.8-6.9-7.3-8.3zm-58.3 1.4l-7.4-14.6h-3.4v29.6h3.3v-22.8l6.5 13h2.1l6.5-13v22.8h3.3V94.5H162l-7.4 14.6z" fill="#0a47ed"/><g><path class="st1" d="M69.4 175.4h3.3v.9c0 2.7-.9 4.9-2.6 6.5-1.8 1.6-4 2.4-6.9 2.4-2.9 0-5.2-.9-7-2.6-1.8-1.7-2.7-4-2.7-6.9v-11.5c0-2.9.9-5.2 2.6-6.9 1.8-1.7 4.1-2.5 7-2.5 2.8 0 5.1.8 6.9 2.4 1.8 1.6 2.6 3.8 2.6 6.5v.7h-3.3v-.8c0-1.7-.6-3.1-1.7-4.2s-2.6-1.6-4.6-1.6c-1.9 0-3.5.6-4.6 1.8-1.1 1.2-1.7 2.7-1.7 4.5V176c0 1.8.6 3.3 1.7 4.5 1.1 1.2 2.6 1.8 4.6 1.8 1.9 0 3.5-.5 4.6-1.6 1.1-1.1 1.7-2.4 1.7-4.2v-1.1zM94.1 171v5.8c0 2.6-.8 4.7-2.3 6.2-1.5 1.5-3.6 2.3-6.1 2.3-2.5 0-4.5-.8-6.1-2.3-1.5-1.5-2.3-3.6-2.3-6.2V171c0-2.6.8-4.7 2.3-6.2 1.5-1.5 3.5-2.3 6.1-2.3 2.5 0 4.5.8 6.1 2.3 1.5 1.5 2.3 3.6 2.3 6.2zm-13.5-.2v6.3c0 1.6.4 2.9 1.3 3.9s2.1 1.5 3.7 1.5 2.8-.5 3.7-1.5c.9-1 1.3-2.3 1.3-3.9v-6.3c0-1.6-.4-2.9-1.3-3.9s-2.1-1.5-3.7-1.5-2.8.5-3.7 1.5c-.8 1-1.3 2.3-1.3 3.9zM102.4 184.9h-3.3v-22h2.5l.4 2.6c1.4-2 3.4-3.1 5.9-3.1 3.2 0 5.4 1.3 6.6 4 1.3-2.6 3.4-4 6.4-4 2.3 0 4.2.7 5.5 2.2 1.3 1.4 2 3.4 2 5.9v14.4h-3.3v-14.4c0-1.5-.4-2.7-1.2-3.6-.8-1-2-1.4-3.5-1.4s-2.7.5-3.6 1.5c-.9 1-1.4 2.2-1.4 3.7V185h-3.3v-14.4c0-1.5-.4-2.7-1.2-3.6-.8-1-2-1.4-3.5-1.4s-2.7.5-3.6 1.5c-.9 1-1.4 2.3-1.4 3.8v14zM137.2 184.9h-3.3v-22h2.5l.4 2.6c1.4-2 3.4-3.1 5.9-3.1 3.2 0 5.4 1.3 6.6 4 1.3-2.6 3.4-4 6.4-4 2.3 0 4.2.7 5.5 2.2 1.3 1.4 2 3.4 2 5.9v14.4h-3.3v-14.4c0-1.5-.4-2.7-1.2-3.6-.8-1-2-1.4-3.5-1.4s-2.7.5-3.6 1.5c-.9 1-1.4 2.2-1.4 3.7V185h-3.3v-14.4c0-1.5-.4-2.7-1.2-3.6-.8-1-2-1.4-3.5-1.4s-2.7.5-3.6 1.5c-.9 1-1.4 2.3-1.4 3.8v14zM181.5 177.5h3.1v.3c0 2.3-.8 4.1-2.2 5.4-1.5 1.3-3.5 2-5.9 2-2.5 0-4.5-.7-6.1-2.2-1.5-1.5-2.3-3.5-2.3-6v-6c0-2.6.8-4.7 2.3-6.2 1.5-1.5 3.5-2.3 6.1-2.3 2.4 0 4.4.8 5.9 2.3 1.5 1.5 2.2 3.6 2.2 6.2v3.3h-13.2v3.1c0 1.5.5 2.7 1.4 3.7.9 1 2.2 1.5 3.8 1.5 1.6 0 2.9-.4 3.7-1.3.9-.9 1.3-2 1.3-3.3v-.5zm-10.2-6.8v1.1h10.1v-1.1c0-1.6-.4-2.9-1.3-4-.9-1-2.1-1.5-3.7-1.5s-2.8.5-3.8 1.5c-.8 1-1.3 2.3-1.3 4zM192.8 184.9h-3.3v-22h2.5l.5 2.8c1.3-2.2 3.3-3.2 5.8-3.2.2 0 .6 0 1.1.1v3.1c-.7-.1-1.2-.1-1.3-.1-1.6 0-2.9.5-3.9 1.5s-1.5 2.3-1.5 4v13.8zM216 177.3h3.2v.4c0 2.4-.8 4.2-2.2 5.6-1.5 1.4-3.5 2-6 2s-4.5-.8-6.1-2.3c-1.5-1.5-2.3-3.6-2.3-6.2V171c0-2.6.8-4.7 2.3-6.2 1.5-1.5 3.5-2.3 6.1-2.3 2.5 0 4.4.7 6 2.1 1.5 1.4 2.3 3.2 2.3 5.5v.3H216v-.5c0-1.3-.4-2.3-1.3-3.2-.9-.8-2.1-1.3-3.7-1.3s-2.8.5-3.7 1.5c-.9 1-1.3 2.3-1.3 3.9v6.3c0 1.6.4 2.9 1.3 3.9s2.1 1.5 3.7 1.5 2.9-.4 3.7-1.3c.9-.8 1.3-1.9 1.3-3.3v-.6zM236.8 177.5h3.1v.3c0 2.3-.7 4.1-2.2 5.4-1.5 1.3-3.5 2-5.9 2-2.5 0-4.5-.7-6.1-2.2-1.5-1.5-2.3-3.5-2.3-6v-6c0-2.6.8-4.7 2.3-6.2 1.5-1.5 3.5-2.3 6.1-2.3 2.4 0 4.4.8 5.9 2.3 1.5 1.5 2.2 3.6 2.2 6.2v3.3h-13.2v3.1c0 1.5.5 2.7 1.4 3.7.9 1 2.2 1.5 3.8 1.5 1.6 0 2.9-.4 3.7-1.3.9-.9 1.3-2 1.3-3.3v-.5zm-10.1-6.8v1.1h10.2v-1.1c0-1.6-.4-2.9-1.3-4-.9-1-2.1-1.5-3.7-1.5s-2.8.5-3.8 1.5-1.4 2.3-1.4 4z" fill="#00d1da"/></g></g></switch></svg>
